<svg viewBox="0 0 262 50" fill="none" xmlns="http://www.w3.org/2000/svg"><path d="M64.633 39.377h2.785l-1.398-3.48-.69 1.74-.697 1.74zm23.497-5.22l.053 1.305a1.457 1.457 0 00-1.027-.661h-2.077v7.233a1.125 1.125 0 00.366.91h-2.268c.236-.244.368-.57.365-.91v-7.262h-2.001a1.665 1.665 0 00-1.09.66l.058-1.304 7.621.029zm-14.425.661h-.099v7.152a.217.217 0 000 .058v.058c.01.216.071.427.18.615.05.09.115.173.192.243h-2.32c.06-.06.112-.125.156-.197.108-.163.176-.35.197-.545a.278.278 0 000-.105.799.799 0 000-.121v-6.962a1.288 1.288 0 00-.174-.58 1 1 0 00-.185-.25h7.888c-.07.072-.13.152-.18.239-.1.177-.16.376-.174.58v6.96a1.357 1.357 0 00.174.702c.054.093.12.18.197.255h-2.32c.08-.077.149-.164.203-.261.11-.199.168-.422.169-.65v-7.215h-3.956l.052.023zm57.237-.702a1.255 1.255 0 00-.313.847v7.001a1.28 1.28 0 00.174.65c.06.097.132.187.215.266h-2.321a1.287 1.287 0 00.372-.899v-6.24l-.041-.981h-1.902a1.708 1.708 0 00-1.561 1.995c.093.783 1.079 1.282 1.839 1.456.253.045.509.067.766.064-.363.366-.684.77-.957 1.206-1.126 2.013-1.961 3.597-4.177 3.411l-.301-.58a1.357 1.357 0 001.49-.632c.389-.58.546-.917.841-1.416a3 3 0 011.375-1.397l.302-.157h-.348a3.666 3.666 0 01-1.23-.284 2.316 2.316 0 01-.916-.58 2.007 2.007 0 01-.354-.58 2.033 2.033 0 01-.122-.708 1.984 1.984 0 01.209-.91c.149-.297.361-.558.62-.766.284-.231.609-.406.957-.516a4.16 4.16 0 011.248-.174l4.135-.076zM90.92 38.002v-3.201h2.077a2.27 2.27 0 011.543.377c.111.084.212.182.301.29l-.04-1.317H89c.206.26.316.584.313.916v6.856a.464.464 0 010 .093.394.394 0 010 .081 1.294 1.294 0 01-.366.807H96l.047-1.404a1.943 1.943 0 01-1.514.771H90.92V38.63h2.32c.986-.047 1.131-.638 1.131-.638h-3.45v.011zm6.96-1.485v-1.566c0-.4.11-.713.383-.806h-2.105a.875.875 0 01.365.777l.04 2.036c.047 2.181 3.8 2.558 4.798.859v4.188a1.36 1.36 0 01-.169.65.973.973 0 01-.203.26h2.292a1.18 1.18 0 01-.18-.25 1.286 1.286 0 01-.168-.637.171.171 0 010-.064.317.317 0 010-.075v-6.764a.271.271 0 010-.07.188.188 0 010-.057 1.35 1.35 0 01.174-.58c.052-.087.114-.166.185-.238h-2.32c.452.255.389.783.406 1.16v1.59c-.51 1.473-3.48 1.461-3.48-.424l-.017.011zm8.979 1.468v-3.068c.021-.292.147-.566.354-.772h-2.291a1.254 1.254 0 01.36.9v7.047a1.311 1.311 0 01-.366.806h2.32a1.294 1.294 0 01-.371-.859v-3.434h3.718v3.359a1.27 1.27 0 01-.365.916h2.32a1.278 1.278 0 01-.366-.916V35.05a1.277 1.277 0 01.36-.905h-2.32a1.276 1.276 0 01.36.905v2.935h-3.713zm9.118 1.38h2.79l-1.403-3.48-.691 1.74-.701 1.74h.005zm-.197-1.426c.163-.435.331-.876.505-1.306.206-.446.3-.936.272-1.426a1.815 1.815 0 00-.533-1.073h2.221l3.167 7.639c.159.456.445.859.824 1.16h-2.401a.912.912 0 00.087-.847l-.905-2.082h-3.289l-.638 1.641a1 1 0 00.232 1.235h-1.943a2.5 2.5 0 00.934-1.235v-.064l1.456-3.63.011-.012zm27.563-3.794c.605.16 1.17.445 1.659.835-.323.135-.63.304-.916.505a2.486 2.486 0 00-1.932-.882 2.229 2.229 0 00-2.117 1.497c-.115.345-.195.7-.238 1.061a10.81 10.81 0 00-.081 1.37 8.132 8.132 0 00.394 2.778c.406 1.078 1.822 1.119 2.1 1.119a2.45 2.45 0 001.879-.835c.284.196.587.361.905.493a4.348 4.348 0 01-2.825.992 4.286 4.286 0 01-4.245-3.272 5.036 5.036 0 01-.145-1.258 4.958 4.958 0 01.313-1.804 4.384 4.384 0 012.355-2.419A4.449 4.449 0 01142.16 34c.391.001.781.052 1.16.151l.023-.006zm4.495 3.846v-3.202h2.083a2.27 2.27 0 011.542.377c.111.086.212.183.302.29l-.041-1.317h-5.8c.204.262.314.585.313.917v6.856a.36.36 0 010 .093.367.367 0 010 .08c-.021.305-.15.59-.365.807h7.111v-1.386a1.932 1.932 0 01-1.52.771h-3.619v-3.642h2.32c.98-.047 1.131-.638 1.131-.638h-3.48l.023-.006zm12.541-3.869l.052 1.305a1.46 1.46 0 00-1.027-.661h-2.076v7.233a1.117 1.117 0 00.365.91h-2.268a1.29 1.29 0 00.365-.91V34.76h-2.006a1.66 1.66 0 00-1.091.661l.058-1.305 7.628.006zm4.785 8.782c.393.004.785-.055 1.16-.174a2.56 2.56 0 00.905-.522c.245-.21.443-.468.58-.76a2.292 2.292 0 00.081-1.618 1.954 1.954 0 00-.337-.58 2.626 2.626 0 00-1.711-.894 3.903 3.903 0 00-2.047.25l.313.481c1.398-.684 2.256.197 2.216 1.38a1.856 1.856 0 01-1.885 1.828h-1.387v-7.233c0-.22.054-.438.157-.633.052-.097.116-.186.191-.266h-2.262c.079.08.147.17.203.266.109.2.165.423.163.65v7.007a1.352 1.352 0 01-.296.847l3.956-.03zM64.424 37.95c.163-.435.331-.876.505-1.305.206-.446.3-.936.273-1.427a1.821 1.821 0 00-.534-1.073h2.222l3.167 7.64c.156.457.442.86.823 1.16h-2.4a.922.922 0 00.07-.83l-.905-2.083H64.35l-.632 1.642a.997.997 0 00.226 1.235H62c.436-.302.765-.734.94-1.235v-.064l1.456-3.63.028-.03zm197.21-27.678h-5.923a5.88 5.88 0 00-1.779.248 3.962 3.962 0 00-1.378.758 3.369 3.369 0 00-.887 1.088 2.912 2.912 0 00-.291 1.306c0 .338.056.673.167.992.117.319.29.614.51.873.361.382.81.67 1.307.84.562.232 1.158.37 1.765.41l.476.033-.434.224c-1.039.544-1.383 1.045-1.96 2.003-.429.71-.653 1.188-1.206 2.027a1.944 1.944 0 01-2.132.901l.429.84c3.191.267 4.383-1.998 6.014-4.86.39-.623.85-1.2 1.369-1.722a5.508 5.508 0 01-1.102-.095c-1.082-.243-2.499-.954-2.628-2.08-.162-1.368.74-2.86 2.232-2.86h2.723l.053 1.401v8.933a1.783 1.783 0 01-.534 1.283h3.31a1.782 1.782 0 01-.558-1.307V11.493a1.799 1.799 0 01.453-1.197l.004-.024zm-16.239 12.505h-5.651c.095-.116.177-.243.243-.377.121-.258.183-.54.181-.825V11.56a1.904 1.904 0 00-.233-.926 1.796 1.796 0 00-.291-.376h3.243a1.695 1.695 0 00-.282.376 1.952 1.952 0 00-.224.902v10.33h2.008a2.654 2.654 0 002.699-2.614c.058-1.693-1.168-2.952-3.176-1.979l-.443-.687a5.612 5.612 0 012.928-.353 3.787 3.787 0 012.451 1.274c.207.263.369.56.477.877.107.325.16.665.158 1.007.006.45-.089.897-.277 1.306-.2.413-.484.778-.835 1.073a3.741 3.741 0 01-1.297.74 5.376 5.376 0 01-1.679.248v.019zM220.3 10.224a6.49 6.49 0 00-1.684-.214 6.396 6.396 0 00-2.451.476 6.207 6.207 0 00-3.367 3.458 7.152 7.152 0 00-.453 2.59 7.419 7.419 0 00.21 1.793 6.149 6.149 0 001.588 2.862A6.2 6.2 0 00218.636 23a6.197 6.197 0 004.525-1.865 6.089 6.089 0 001.369-2.094 6.95 6.95 0 00.477-2.565 7.168 7.168 0 00-.205-1.75 6.195 6.195 0 00-1.612-2.862 6.336 6.336 0 00-2.861-1.636l-.029-.005zm-1.698.654c1.092 0 2.661.524 3.181 2.04.151.475.252.965.301 1.46a17.8 17.8 0 01.1 2.013 12.243 12.243 0 01-.553 3.996c-.568 1.565-2.581 1.689-2.943 1.689-.362 0-2.423-.058-3.009-1.603-.411-1.274-.6-2.61-.558-3.949-.005-.657.034-1.313.114-1.965a7.38 7.38 0 01.334-1.511 3.196 3.196 0 013.033-2.147v-.023zm-50.238 5.107a5.72 5.72 0 011.383.454 3.268 3.268 0 01.72 5.503c-1.879 1.526-6.338 1.64-8.175 0A3.701 3.701 0 01161 19.157l.739.424c.035.264.116.518.239.754 1.278 2.146 5.298 1.98 6.295.892.997-1.088 1.34-2.895-.091-4.135-1.225-.782-2.317-.477-3.581-.363v-1.235a5.11 5.11 0 001.969.09 1.953 1.953 0 001.665-1.43c.477-1.636-.439-2.861-2.227-2.957-2.022-.086-3.763.92-4.378 2.237l.085-2.113c.954-.162 2.418-1.154 4.436-1.254 2.132-.105 5.055.806 5.055 3.372 0 1.43-.954 2.012-2.823 2.566l-.019-.02zm64.775-5.723h-6.134a2.028 2.028 0 01.635 1.56v9.538a1.72 1.72 0 01-.63 1.431h5.723c2.07 0 4.898-.658 4.898-3.238 0-2.18-2.146-3.158-4.025-3.339 1.536-.224 3.3-1.216 3.3-3.08 0-2.17-2.008-2.862-3.748-2.862l-.019-.01zm-1.732 5.5h-1.583v-4.584h2.385c1.731 0 2.384 1.05 2.351 2.237-.086 1.94-1.364 2.342-3.129 2.342l-.024.004zm-1.583.915h2.084c.725 0 1.717.143 2.261.663a2.915 2.915 0 01.787 2.165c0 1.722-1.193 2.385-2.919 2.385h-2.213v-5.213zm-22.94-6.405h-5.656a1.864 1.864 0 01.429 1.197v10.015c.001.324-.082.642-.238.925-.08.14-.178.268-.291.382h3.243a1.6 1.6 0 01-.281-.381 1.94 1.94 0 01-.225-.902V11.179h1.984a2.656 2.656 0 012.7 2.614c.057 1.697-1.073 2.861-3.081 1.907l-.572.778c.937.38 1.96.503 2.961.352a3.77 3.77 0 002.452-1.273c.208-.261.369-.556.476-.873a3.15 3.15 0 00.158-1.01 3.037 3.037 0 00-.277-1.307 3.255 3.255 0 00-.811-1.088 3.669 3.669 0 00-1.297-.739 5.245 5.245 0 00-1.674-.248v-.02zm-12.266-.057a6.487 6.487 0 00-1.684-.215 6.39 6.39 0 00-2.451.477 6.147 6.147 0 00-2.013 1.378 6.076 6.076 0 00-1.354 2.084 7.118 7.118 0 00-.434 2.585 7.41 7.41 0 00.21 1.798 6.148 6.148 0 001.588 2.862 6.225 6.225 0 004.488 1.84 6.202 6.202 0 004.526-1.864 6.104 6.104 0 001.369-2.094 6.95 6.95 0 00.476-2.566 7.118 7.118 0 00-.205-1.75 6.195 6.195 0 00-1.612-2.861 6.33 6.33 0 00-2.861-1.636l-.043-.038zm-1.698.653c1.097 0 2.661.525 3.181 2.041.151.475.252.964.301 1.46.071.667.105 1.337.1 2.008a12.19 12.19 0 01-.553 3.996c-.568 1.564-2.581 1.693-2.943 1.693-.363 0-2.423-.057-3.009-1.602a11.661 11.661 0 01-.558-3.973c-.005-.657.034-1.313.114-1.965.058-.514.17-1.02.334-1.512a3.196 3.196 0 013.033-2.146zm-16.992-.777c-.749 0-1.765 0-2.314.043.954.868.954 1.75.954 2.942v7.974h2.228V11.035c2.041-.177 4.316.639 5.193 2.485.41.872.611 1.827.587 2.79-.115 4.73-5.246 7.053-9.372 5.108l.449 1.43.982.058c2.385.152 5.985.381 8.213-1.698 2.437-2.28 2.728-7.354.147-9.648-1.092-.954-2.694-1.407-4.826-1.431h-2.232l-.009-.038zm-32.687 4.724l-2.195 5.477-.04.1c-.234.577-.757 1.543-1.414 1.867h2.932c-.657-.413-.577-1.314-.348-1.862l.961-2.49h4.979l1.369 3.152a1.388 1.388 0 01-.11 1.255H153a3.887 3.887 0 01-1.245-1.723l-4.78-11.541h-3.36a2.72 2.72 0 01.801 1.623 4.477 4.477 0 01-.408 2.15c-.264.653-.498 1.32-.767 1.992zm.304 2.151l1.056-2.599 1.04-2.604 2.116 5.233-4.212-.03zm-50.895-2.16l-2.2 5.476-.04.1c-.23.582-.752 1.548-1.414 1.867h2.932c-.657-.418-.572-1.314-.348-1.862l.966-2.49h4.979l1.369 3.152a1.374 1.374 0 01-.14 1.285h3.63a3.94 3.94 0 01-1.25-1.723L96.36 9.07h-3.361c.446.433.73 1.006.806 1.623a4.48 4.48 0 01-.408 2.15 59.11 59.11 0 00-.767 1.992l.02-.03zm.304 2.155l1.056-2.594 1.045-2.609 2.106 5.198-4.207.005zm27.553-2.136h5.218s-.224.897-1.712.961h-3.486v5.477h5.477a2.915 2.915 0 001.618-.498c.262-.173.489-.393.673-.647l-.065 2.126h-10.655c.324-.33.52-.764.553-1.225v-.12a1.497 1.497 0 000-.134V10.42a2.185 2.185 0 00-.473-1.384h8.728l.064 1.991a2.673 2.673 0 00-.453-.438c-.742-.572-1.493-.572-2.33-.572h-3.142v4.834l-.015-.025zm-14.339 0h5.616v-4.44a1.944 1.944 0 00-.542-1.37h3.485c-.352.368-.545.86-.538 1.37V20.84a1.923 1.923 0 00.558 1.38h-3.485a1.944 1.944 0 00.557-1.38V15.8h-5.651v5.165c.017.485.214.946.553 1.294h-3.485a1.94 1.94 0 00.547-1.215.794.794 0 000-.12.931.931 0 000-.129v-10.39a1.942 1.942 0 00-.547-1.37h3.485a1.86 1.86 0 00-.533 1.17.53.53 0 000 .08v4.55l-.02-.01zM65.052 9.981h5.975V20.88c.002.347-.084.69-.25.995a1.87 1.87 0 01-.303.399h3.456a1.754 1.754 0 01-.3-.389 1.992 1.992 0 01-.258-.956V10.495a.802.802 0 010-.11 1.941 1.941 0 01.264-.98c.076-.131.168-.252.274-.36H62.005c.11.112.206.238.284.374a1.99 1.99 0 01.254 1.046v10.331a1.11 1.11 0 010 .184c.002.053.002.107 0 .16a1.961 1.961 0 01-.299.821c-.07.108-.152.209-.244.299h3.485a1.746 1.746 0 01-.288-.369 1.992 1.992 0 01-.264-1.01V9.996l.12-.015zm18.064 6.876c.582 1.399 1.17 2.733 1.762 4.127a1.41 1.41 0 01-.11 1.255h3.625a3.884 3.884 0 01-1.244-1.723l-4.78-11.481h-3.361c.46.434.752 1.015.827 1.643.01.724-.162 1.44-.498 2.081l-3.023 7.533-.04.105c-.228.577-.751 1.543-1.413 1.867h2.937c-.662-.418-.577-1.315-.353-1.862l3.515-8.748 2.156 5.203zm57.083-7.822h-11.536l-.085 1.991c.458-.498.996-.995 1.648-.995h2.181a.88.88 0 01.164 0h.683V20.91a1.926 1.926 0 01-.558 1.38h3.43a1.696 1.696 0 01-.527-1.38V9.996h3.136a2.2 2.2 0 011.554.996L140.204 9l-.005.035zM27.012 5.968c-7.981-.076-16.281 5.14-19.509 14.305-2.817 8.049-1.002 19.795 10.761 26.667.175.076.57-3.895 11.634-6.94 8.688-2.384 15.113-11.048 9.979-17.608-3.85-4.928-10.799-5.376-16.631.82 1.845-5.24 5.885-8.352 9.371-9.112 9.645-2.035 16.472 6.545 15.522 16.606C47.084 42.005 36.452 50 24.787 50 11.194 50 0 38.702 0 24.943A25.055 25.055 0 0125.06 0C38.875 0 49.97 11.101 50 25.33 47.372 14.563 39.186 6.09 27.012 5.968z" fill="#178ED1"/></svg>